<svg width="32" height="32" viewBox="0 0 32 32" fill="none" xmlns="http://www.w3.org/2000/svg">
  <!-- 背景の円 - Twitter Blueっぽい色 -->
  <circle cx="16" cy="16" r="16" fill="#1D9BF0"/>
  
  <!-- Gの文字 - 白色でシンプルに -->
  <path d="M21.5 11.4C20.3 10.2 18.8 9.6 17 9.6C15.2 9.6 13.7 10.2 12.5 11.4C11.3 12.6 10.7 14.1 10.7 16C10.7 17.9 11.3 19.4 12.5 20.6C13.7 21.8 15.2 22.4 17 22.4C18.5 22.4 19.7 22 20.6 21.2V18.4H16.2V16H23.4V22.4C22 23.4 20.2 24 18.1 24C15.6 24 13.5 23.2 11.8 21.5C10.1 19.8 9.3 17.7 9.3 15.1C9.3 13.6 9.6 12.3 10.3 11C11 9.7 11.9 8.7 13.1 8C14.3 7.3 15.7 6.9 17.2 6.9C19.3 6.9 21.1 7.6 22.5 8.9L21.5 11.4Z" fill="white"/>
  
  <!-- 電撃マークをモチーフにした要素（左側） -->
  <path d="M6 13L9 17L7 18L11 23L9 18L11 17L8 13H6Z" fill="white"/>
</svg>